<svg width="32" height="32" viewBox="0 0 32 32" fill="none" xmlns="http://www.w3.org/2000/svg">
<path fill-rule="evenodd" clip-rule="evenodd" d="M7.47626 24.6294L14.6731 17.8075V14.434H15.7976V17.4326H22.9944L22.6945 14.2091C22.6195 12.9346 22.9644 11.99 25.8431 11.5103L26.068 12.6348C25.4433 12.6597 24.1638 12.9946 24.0439 13.5344C23.924 14.0741 24.7436 21.106 25.1684 24.5545L24.0439 25.0043L23.2193 19.0069L16.9221 24.8543L16.4723 23.7298L21.9448 18.5571H15.7976V23.8798V26.1288H6.42673L7.47626 24.6294ZM14.6731 19.4567V23.8798V25.1542H8.45083L14.6731 19.4567Z" fill="#4878A6" stroke="#0E1821" stroke-width="0.480098" stroke-linecap="round" stroke-linejoin="round"/>
<circle cx="7.10125" cy="25.9039" r="5.38245" stroke="#0E1821" stroke-width="0.480098"/>
<path d="M12.4239 25.9041C12.4239 28.8437 10.0408 31.2267 7.10121 31.2267C4.1616 31.2267 1.77858 28.8437 1.77858 25.9041C1.77858 22.9644 4.1616 20.5814 7.10121 20.5814C10.0408 20.5814 12.4239 22.9644 12.4239 25.9041ZM3.20906 25.9041C3.20906 28.0536 4.95164 29.7962 7.10121 29.7962C9.25079 29.7962 10.9934 28.0536 10.9934 25.9041C10.9934 23.7545 9.25079 22.0119 7.10121 22.0119C4.95164 22.0119 3.20906 23.7545 3.20906 25.9041Z" fill="#0E1821"/>
<circle cx="7.10125" cy="25.9039" r="5.38245" stroke="#0E1821" stroke-width="0.480098"/>
<circle cx="7.1013" cy="25.9038" r="3.73319" stroke="#0E1821" stroke-width="0.480098"/>
<circle cx="7.10129" cy="25.904" r="1.33425" fill="#F15152" stroke="#0E1821" stroke-width="0.480098"/>
<path d="M30.2663 25.9041C30.2663 28.8437 27.8833 31.2267 24.9437 31.2267C22.0041 31.2267 19.621 28.8437 19.621 25.9041C19.621 22.9644 22.0041 20.5814 24.9437 20.5814C27.8833 20.5814 30.2663 22.9644 30.2663 25.9041ZM21.0515 25.9041C21.0515 28.0536 22.7941 29.7962 24.9437 29.7962C27.0933 29.7962 28.8358 28.0536 28.8358 25.9041C28.8358 23.7545 27.0933 22.0119 24.9437 22.0119C22.7941 22.0119 21.0515 23.7545 21.0515 25.9041Z" fill="#0E1821"/>
<circle cx="24.9435" cy="25.9039" r="5.38245" stroke="#0E1821" stroke-width="0.480098"/>
<circle cx="24.9437" cy="25.9038" r="3.73319" stroke="#0E1821" stroke-width="0.480098"/>
<circle cx="24.9437" cy="25.904" r="1.33425" fill="#F15152" stroke="#0E1821" stroke-width="0.480098"/>
<circle cx="15.2731" cy="25.3792" r="1.85902" fill="#2A5275" stroke="#0E1821" stroke-width="0.480098"/>
<line x1="15.2828" y1="25.3893" x2="15.2828" y2="28.6677" stroke="#0E1821" stroke-width="0.320065" stroke-linecap="round"/>
<line x1="15.9325" y1="28.6179" x2="14.6134" y2="28.6179" stroke="#0E1821" stroke-width="0.480098" stroke-linecap="round"/>
<circle cx="26.9676" cy="11.7352" r="1.25928" fill="#F15152" stroke="#0E1821" stroke-width="0.480098"/>
<path d="M5.67725 9.78607V14.963C5.67725 15.5817 6.17879 16.0833 6.79747 16.0833H14.8232" stroke="#0E1821" stroke-width="0.480098"/>
<circle cx="19.7709" cy="6.03768" r="5.15755" fill="white" stroke="#0E1821" stroke-width="0.480098"/>
<path d="M18.581 2.46087C18.5956 2.41132 18.6259 2.36783 18.6674 2.3369C18.7089 2.30598 18.7594 2.28928 18.8112 2.28931H20.7303C20.7682 2.28934 20.8057 2.29835 20.8395 2.31561C20.8733 2.33287 20.9025 2.35788 20.9247 2.38859C20.9469 2.41929 20.9615 2.45481 20.9672 2.49222C20.9729 2.52962 20.9697 2.56785 20.9577 2.60375L20.1037 5.15661H21.9296C21.9746 5.15658 22.0186 5.16912 22.0567 5.19279C22.0948 5.21646 22.1255 5.25032 22.1453 5.29051C22.165 5.3307 22.173 5.3756 22.1684 5.42011C22.1638 5.46462 22.1467 5.50695 22.1192 5.54226L18.7609 9.84322C18.7265 9.8875 18.6775 9.91833 18.6226 9.93034C18.5677 9.94236 18.5104 9.93479 18.4605 9.90896C18.4106 9.88312 18.3715 9.84067 18.3498 9.78901C18.3282 9.73734 18.3254 9.67974 18.342 9.62626L19.2061 6.82921H17.6118C17.5746 6.82923 17.5378 6.82059 17.5044 6.80397C17.4711 6.78736 17.442 6.76322 17.4197 6.73349C17.3973 6.70375 17.3823 6.66923 17.3756 6.63268C17.369 6.59612 17.371 6.55852 17.3816 6.52288L18.581 2.46087ZM18.9907 2.76719L17.9323 6.35132H19.5309C19.5684 6.35132 19.6054 6.36008 19.6389 6.37692C19.6725 6.39376 19.7015 6.41821 19.7239 6.44828C19.7462 6.47836 19.7611 6.51323 19.7674 6.55009C19.7737 6.58695 19.7712 6.62477 19.7602 6.66051L19.1854 8.52092L21.4393 5.6345H19.7707C19.7328 5.63447 19.6953 5.62545 19.6615 5.60819C19.6277 5.59093 19.5985 5.56592 19.5763 5.53522C19.5541 5.50451 19.5395 5.46899 19.5338 5.43159C19.5281 5.39418 19.5313 5.35595 19.5433 5.32005L20.3973 2.76719H18.9907Z" fill="#F15152"/>
<path d="M5.01733 8.82666H6.33643V9.45591C6.33643 9.58849 6.22896 9.69596 6.09639 9.69596H5.25738C5.1248 9.69596 5.01733 9.58849 5.01733 9.45591V8.82666Z" fill="#F15152" stroke="#0E1821" stroke-width="0.480098"/>
<path d="M4.26785 6.72754H7.08629V8.55626C7.08629 8.68883 6.97881 8.79631 6.84624 8.79631H4.5079C4.37532 8.79631 4.26785 8.68883 4.26785 8.55626V6.72754Z" fill="#F15152" stroke="#0E1821" stroke-width="0.480098"/>
<line x1="4.83725" y1="6.39746" x2="4.83725" y2="5.52816" stroke="#0E1821" stroke-width="0.480098" stroke-linecap="round"/>
<line x1="6.4867" y1="6.39746" x2="6.4867" y2="5.52816" stroke="#0E1821" stroke-width="0.480098" stroke-linecap="round"/>
<path d="M18.1965 14.359H12.6489C12.0492 14.2841 11.917 14.0946 11.7493 13.7593C11.5994 13.4594 11.6744 12.7847 11.8243 12.4849C12.0049 12.1238 12.424 11.8768 12.7239 11.8102C13.3986 11.6602 14.1483 11.8102 14.748 12.11C15.2222 12.3471 15.5984 12.9785 16.0225 13.0846C16.3223 13.1596 18.1215 13.1595 18.4214 13.3095C18.7213 13.4594 18.7962 14.1591 18.1965 14.359Z" fill="white" stroke="#0E1821" stroke-width="0.480098" stroke-linecap="round" stroke-linejoin="round"/>
</svg>
