<svg width="32" height="32" viewBox="0 0 32 32" fill="none" xmlns="http://www.w3.org/2000/svg">
<rect x="2.32046" y="24.405" width="27.6856" height="2.56052" rx="1.28026" fill="#2A5275" stroke="#0E1821" stroke-width="0.480098"/>
<path d="M4.56079 26.9653H9.84186V29.7659C9.84186 30.252 9.44779 30.6461 8.96168 30.6461H5.44097C4.95486 30.6461 4.56079 30.252 4.56079 29.7659V26.9653Z" fill="#0E1821" stroke="#0E1821" stroke-width="0.480098"/>
<path d="M22.4845 26.9653H27.7656V29.7659C27.7656 30.252 27.3715 30.6461 26.8854 30.6461H23.3647C22.8786 30.6461 22.4845 30.252 22.4845 29.7659V26.9653Z" fill="#0E1821" stroke="#0E1821" stroke-width="0.480098"/>
<path d="M6.24117 16.0834H26.0852C27.8971 16.0834 29.3659 17.5522 29.3659 19.364V22.8848C29.3659 23.7244 28.6852 24.4051 27.8456 24.4051H4.48082C3.64118 24.4051 2.96051 23.7244 2.96051 22.8848V19.364C2.96051 17.5522 4.42931 16.0834 6.24117 16.0834Z" fill="#4878A6" stroke="#0E1821" stroke-width="0.480098"/>
<path d="M22.2325 8.32166H10.0937C8.66425 8.32166 7.40812 9.26948 7.01588 10.644L5.44092 16.1632H26.8853L25.3103 10.644C24.9181 9.26948 23.6619 8.32166 22.2325 8.32166Z" fill="#4878A6" stroke="#0E1821" stroke-width="0.480098" stroke-linecap="round" stroke-linejoin="round"/>
<path d="M22.8628 10.1622H9.46319C9.11638 10.1622 8.80905 10.3856 8.70206 10.7155L6.96112 16.0834H25.3649L23.6239 10.7155C23.5169 10.3856 23.2096 10.1622 22.8628 10.1622Z" fill="white" stroke="#0E1821" stroke-width="0.480098" stroke-linecap="round" stroke-linejoin="round"/>
<path d="M6.30057 13.2827H5.601C3.4798 13.2827 1.76022 11.5631 1.76022 9.44189V6.72134C1.76022 4.60013 3.4798 2.88055 5.601 2.88055H24.4848" stroke="#0E1821" stroke-width="0.480098"/>
<path d="M25.2051 2.16034L25.2051 3.60063L24.4849 3.60063C24.3523 3.60063 24.2449 3.49316 24.2449 3.36058L24.2449 2.40039C24.2449 2.26781 24.3523 2.16034 24.4849 2.16034L25.2051 2.16034Z" fill="#F15152" stroke="#0E1821" stroke-width="0.480098"/>
<path d="M27.4457 1.36023L27.4457 4.40084L25.4453 4.40084C25.3127 4.40084 25.2053 4.29337 25.2053 4.1608L25.2053 1.60028C25.2053 1.4677 25.3127 1.36023 25.4453 1.36023L27.4457 1.36023Z" fill="#F15152" stroke="#0E1821" stroke-width="0.480098"/>
<line x1="27.7655" y1="2.00043" x2="28.7257" y2="2.00043" stroke="#0E1821" stroke-width="0.480098" stroke-linecap="round"/>
<line x1="27.7655" y1="3.76068" x2="28.7257" y2="3.76068" stroke="#0E1821" stroke-width="0.480098" stroke-linecap="round"/>
<circle cx="7.12116" cy="20.7241" r="2.24046" fill="#FBB13C" stroke="#0E1821" stroke-width="0.480098"/>
<circle cx="25.2051" cy="20.7241" r="2.24046" fill="#FBB13C" stroke="#0E1821" stroke-width="0.480098"/>
<path d="M15.2903 17.7294C15.301 17.6931 15.3232 17.6612 15.3537 17.6386C15.3842 17.6159 15.4212 17.6037 15.4592 17.6037H16.8674C16.8953 17.6037 16.9228 17.6103 16.9476 17.623C16.9724 17.6356 16.9938 17.6539 17.0101 17.6764C17.0264 17.6989 17.0371 17.7249 17.0413 17.7523C17.0455 17.7797 17.0431 17.8077 17.0343 17.834L16.4077 19.704H17.7476C17.7805 19.704 17.8128 19.7132 17.8408 19.7305C17.8688 19.7478 17.8913 19.7726 17.9058 19.8021C17.9203 19.8315 17.9262 19.8644 17.9228 19.897C17.9194 19.9296 17.9069 19.9606 17.8866 19.9865L15.4223 23.1369C15.397 23.1694 15.3611 23.192 15.3208 23.2008C15.2806 23.2096 15.2384 23.204 15.2019 23.1851C15.1653 23.1662 15.1365 23.1351 15.1206 23.0972C15.1047 23.0594 15.1027 23.0172 15.1149 22.978L15.749 20.9292H14.5791C14.5517 20.9292 14.5248 20.9229 14.5003 20.9107C14.4758 20.8985 14.4545 20.8808 14.4381 20.8591C14.4217 20.8373 14.4106 20.812 14.4058 20.7852C14.4009 20.7584 14.4024 20.7309 14.4101 20.7048L15.2903 17.7294ZM15.5909 17.9537L14.8143 20.5791H15.9873C16.0149 20.5791 16.042 20.5855 16.0666 20.5979C16.0912 20.6102 16.1126 20.6281 16.1289 20.6501C16.1453 20.6722 16.1562 20.6977 16.1609 20.7247C16.1655 20.7517 16.1637 20.7794 16.1556 20.8056L15.7338 22.1684L17.3878 20.0541H16.1633C16.1355 20.054 16.108 20.0474 16.0832 20.0348C16.0584 20.0221 16.0369 20.0038 16.0206 19.9813C16.0043 19.9588 15.9937 19.9328 15.9895 19.9054C15.9853 19.878 15.9877 19.85 15.9965 19.8237L16.6231 17.9537H15.5909Z" fill="white"/>
</svg>
