<svg width="48" height="48" viewBox="0 0 48 48" fill="none" xmlns="http://www.w3.org/2000/svg">
<path d="M20.3816 33.7034C21.2096 33.7034 21.8807 33.0394 21.8807 32.2203C21.8807 31.4011 21.2096 30.7371 20.3816 30.7371C19.5537 30.7371 18.8826 31.4011 18.8826 32.2203C18.8826 33.0394 19.5537 33.7034 20.3816 33.7034Z" fill="#838688"/>
<path d="M29.4893 33.7034C30.3173 33.7034 30.9884 33.0394 30.9884 32.2203C30.9884 31.4011 30.3173 30.7371 29.4893 30.7371C28.6614 30.7371 27.9903 31.4011 27.9903 32.2203C27.9903 33.0394 28.6614 33.7034 29.4893 33.7034Z" fill="#838688"/>
<path d="M33.5402 16.1385C33.4782 16.0629 33.4 16.0018 33.3113 15.9597C33.2226 15.9175 33.1256 15.8953 33.0272 15.8946H22.0661C21.6174 15.8946 21.2998 16.3332 21.4398 16.7595V16.7595C21.5287 17.0301 21.7813 17.213 22.0661 17.213H32.1544L30.3755 24.1455H20.3816L17.3369 15.5848C17.3039 15.4836 17.2467 15.3918 17.1702 15.3172C17.0936 15.2426 16.9999 15.1874 16.8971 15.1564L14.1655 14.3258C14.0815 14.3003 13.9932 14.2914 13.9058 14.2996C13.8183 14.3078 13.7333 14.333 13.6556 14.3737C13.4988 14.4559 13.3815 14.5963 13.3293 14.7642C13.2772 14.932 13.2946 15.1134 13.3777 15.2686C13.4608 15.4237 13.6028 15.5399 13.7724 15.5914L16.1642 16.3165L19.2224 24.8969L18.1297 25.7802L18.0431 25.8659C17.7728 26.174 17.6196 26.5658 17.6099 26.9737C17.6002 27.3816 17.7345 27.78 17.9898 28.1005C18.1714 28.319 18.4021 28.4924 18.6636 28.6068C18.9251 28.7213 19.21 28.7736 19.4955 28.7596H30.6153C30.792 28.7596 30.9615 28.6902 31.0864 28.5666C31.2114 28.4429 31.2816 28.2753 31.2816 28.1005C31.2816 27.9256 31.2114 27.758 31.0864 27.6344C30.9615 27.5107 30.792 27.4413 30.6153 27.4413H19.3889C19.3122 27.4387 19.2374 27.4166 19.1719 27.3771C19.1063 27.3375 19.0522 27.282 19.0147 27.2157C18.9772 27.1494 18.9576 27.0747 18.9578 26.9988C18.958 26.9228 18.978 26.8482 19.0158 26.7821L20.6215 25.4638H30.9085C31.0625 25.4675 31.213 25.4183 31.3345 25.3246C31.456 25.2308 31.5409 25.0983 31.5747 24.9497L33.6867 16.6988C33.707 16.6006 33.7043 16.499 33.6789 16.4019C33.6535 16.3048 33.6061 16.2147 33.5402 16.1385Z" fill="#838688"/>
<path fill-rule="evenodd" clip-rule="evenodd" d="M33.0272 15.8946C33.1256 15.8953 33.2226 15.9175 33.3113 15.9597C33.4 16.0018 33.4782 16.0629 33.5402 16.1385C33.6061 16.2147 33.6535 16.3048 33.6789 16.4019C33.7043 16.499 33.707 16.6006 33.6867 16.6988L31.5747 24.9497C31.5409 25.0983 31.456 25.2308 31.3345 25.3246C31.213 25.4183 31.0625 25.4675 30.9085 25.4638H20.6215L19.0158 26.7821C18.978 26.8482 18.958 26.9228 18.9578 26.9988C18.9576 27.0747 18.9772 27.1494 19.0147 27.2157C19.0522 27.282 19.1063 27.3375 19.1719 27.3771C19.2374 27.4166 19.3122 27.4387 19.3889 27.4413H30.6153C30.792 27.4413 30.9615 27.5107 31.0864 27.6344C31.2114 27.758 31.2816 27.9256 31.2816 28.1005C31.2816 28.2753 31.2114 28.4429 31.0864 28.5666C30.9615 28.6902 30.792 28.7596 30.6153 28.7596H19.4955C19.21 28.7736 18.9251 28.7213 18.6636 28.6068C18.4021 28.4924 18.1714 28.319 17.9898 28.1005C17.7345 27.78 17.6002 27.3816 17.6099 26.9737C17.6196 26.5658 17.7728 26.174 18.0431 25.8659L18.1297 25.7802L19.2224 24.8969L16.1642 16.3165L13.7724 15.5914C13.6028 15.5399 13.4608 15.4237 13.3777 15.2686C13.2946 15.1134 13.2772 14.932 13.3293 14.7642C13.3815 14.5963 13.4988 14.4559 13.6556 14.3737C13.7333 14.333 13.8183 14.3078 13.9058 14.2996C13.9932 14.2914 14.0815 14.3003 14.1655 14.3258L16.8971 15.1564C16.9999 15.1874 17.0936 15.2426 17.1702 15.3172C17.2467 15.3918 17.3039 15.4836 17.3369 15.5848L20.3816 24.1455H30.3755L32.1544 17.213H22.0661C21.7813 17.213 21.5287 17.0301 21.4398 16.7595V16.7595C21.2998 16.3332 21.6174 15.8946 22.0661 15.8946H33.0272ZM31.7805 17.5096H22.0631C21.6501 17.5096 21.2839 17.2444 21.155 16.8521V16.8521C20.9519 16.234 21.4124 15.598 22.0631 15.598H33.0291C33.1718 15.599 33.3125 15.6312 33.4412 15.6923C33.5686 15.7529 33.681 15.8404 33.7705 15.9487C33.8648 16.0585 33.9327 16.1881 33.9692 16.3276C34.006 16.4684 34.0099 16.6156 33.9805 16.7581L33.9792 16.7643L31.8672 25.0148M31.7805 17.5096L30.135 23.8488H20.6014L17.6228 15.4955L17.6222 15.4939C17.5745 15.3472 17.4916 15.214 17.3805 15.1059C17.2696 14.9977 17.1339 14.9178 16.9849 14.8728L14.2536 14.0423C14.1319 14.0053 14.0041 13.9924 13.8774 14.0043C13.7508 14.0162 13.6277 14.0526 13.5153 14.1116C13.2882 14.2306 13.1182 14.434 13.0427 14.677C12.9673 14.9201 12.9924 15.1828 13.1128 15.4075C13.2331 15.6321 13.4387 15.8003 13.6843 15.875L15.9259 16.5545L18.8751 24.7946L17.9283 25.5599L17.8236 25.6636L17.8166 25.6715C17.5006 26.0318 17.3215 26.4898 17.3102 26.9667C17.2988 27.4436 17.4559 27.9095 17.7543 28.2841L17.7582 28.2889C17.9695 28.5431 18.238 28.7449 18.5423 28.8781C18.8442 29.0102 19.1729 29.0712 19.5026 29.0563H30.6153C30.8715 29.0563 31.1172 28.9556 31.2984 28.7763C31.4796 28.5971 31.5814 28.354 31.5814 28.1005C31.5814 27.847 31.4796 27.6039 31.2984 27.4246C31.1172 27.2454 30.8715 27.1447 30.6153 27.1447H19.3954C19.3715 27.1433 19.3484 27.1361 19.3279 27.1238C19.3064 27.1108 19.2886 27.0925 19.2763 27.0708C19.264 27.049 19.2575 27.0245 19.2576 26.9995C19.2576 26.9881 19.259 26.9767 19.2617 26.9657L20.7297 25.7604H30.9051C31.1271 25.7649 31.3438 25.6936 31.5189 25.5585C31.695 25.4226 31.8181 25.2303 31.8672 25.0148M22.1805 32.2203C22.1805 33.2032 21.3751 34 20.3816 34C19.3881 34 18.5828 33.2032 18.5828 32.2203C18.5828 31.2373 19.3881 30.4405 20.3816 30.4405C21.3751 30.4405 22.1805 31.2373 22.1805 32.2203ZM31.2882 32.2203C31.2882 33.2032 30.4828 34 29.4893 34C28.4958 34 27.6905 33.2032 27.6905 32.2203C27.6905 31.2373 28.4958 30.4405 29.4893 30.4405C30.4828 30.4405 31.2882 31.2373 31.2882 32.2203ZM20.3816 33.7034C21.2096 33.7034 21.8807 33.0394 21.8807 32.2203C21.8807 31.4011 21.2096 30.7371 20.3816 30.7371C19.5537 30.7371 18.8826 31.4011 18.8826 32.2203C18.8826 33.0394 19.5537 33.7034 20.3816 33.7034ZM29.4893 33.7034C30.3173 33.7034 30.9884 33.0394 30.9884 32.2203C30.9884 31.4011 30.3173 30.7371 29.4893 30.7371C28.6614 30.7371 27.9903 31.4011 27.9903 32.2203C27.9903 33.0394 28.6614 33.7034 29.4893 33.7034Z" fill="#838688"/>
</svg>
