<svg width="48" height="48" viewBox="0 0 48 48" fill="none" xmlns="http://www.w3.org/2000/svg">
<path d="M17 24C16.7348 24 16.4804 24.1054 16.2929 24.2929C16.1054 24.4804 16 24.7348 16 25V33C16 33.2652 16.1054 33.5196 16.2929 33.7071C16.4804 33.8946 16.7348 34 17 34C17.2652 34 17.5196 33.8946 17.7071 33.7071C17.8946 33.5196 18 33.2652 18 33V25C18 24.7348 17.8946 24.4804 17.7071 24.2929C17.5196 24.1054 17.2652 24 17 24ZM22 14C21.7348 14 21.4804 14.1054 21.2929 14.2929C21.1054 14.4804 21 14.7348 21 15V33C21 33.2652 21.1054 33.5196 21.2929 33.7071C21.4804 33.8946 21.7348 34 22 34C22.2652 34 22.5196 33.8946 22.7071 33.7071C22.8946 33.5196 23 33.2652 23 33V15C23 14.7348 22.8946 14.4804 22.7071 14.2929C22.5196 14.1054 22.2652 14 22 14ZM32 28C31.7348 28 31.4804 28.1054 31.2929 28.2929C31.1054 28.4804 31 28.7348 31 29V33C31 33.2652 31.1054 33.5196 31.2929 33.7071C31.4804 33.8946 31.7348 34 32 34C32.2652 34 32.5196 33.8946 32.7071 33.7071C32.8946 33.5196 33 33.2652 33 33V29C33 28.7348 32.8946 28.4804 32.7071 28.2929C32.5196 28.1054 32.2652 28 32 28ZM27 20C26.7348 20 26.4804 20.1054 26.2929 20.2929C26.1054 20.4804 26 20.7348 26 21V33C26 33.2652 26.1054 33.5196 26.2929 33.7071C26.4804 33.8946 26.7348 34 27 34C27.2652 34 27.5196 33.8946 27.7071 33.7071C27.8946 33.5196 28 33.2652 28 33V21C28 20.7348 27.8946 20.4804 27.7071 20.2929C27.5196 20.1054 27.2652 20 27 20Z" fill="#838688"/>
</svg>
