<svg width="48" height="48" viewBox="0 0 48 48" fill="none" xmlns="http://www.w3.org/2000/svg">
<path d="M33.257 22.962C33.731 23.582 33.731 24.419 33.257 25.038C31.764 26.987 28.182 31 24 31C19.818 31 16.236 26.987 14.743 25.038C14.5124 24.7411 14.3872 24.3759 14.3872 24C14.3872 23.6241 14.5124 23.2589 14.743 22.962C16.236 21.013 19.818 17 24 17C28.182 17 31.764 21.013 33.257 22.962V22.962Z" stroke="#838688" stroke-width="2" stroke-linecap="round" stroke-linejoin="round"/>
<path d="M24 27C25.6569 27 27 25.6569 27 24C27 22.3431 25.6569 21 24 21C22.3431 21 21 22.3431 21 24C21 25.6569 22.3431 27 24 27Z" stroke="#838688" stroke-width="2" stroke-linecap="round" stroke-linejoin="round"/>
</svg>
