<svg width="32" height="32" viewBox="0 0 32 32" fill="none" xmlns="http://www.w3.org/2000/svg">
<path d="M7.68186 8.96185H9.44222C10.547 8.96185 11.4426 9.85746 11.4426 10.9623V12.9627H5.68146V10.9623C5.68146 9.85746 6.57707 8.96185 7.68186 8.96185Z" fill="#2A5275" stroke="#0E1821" stroke-width="0.480098"/>
<path d="M15.5235 11.3624H16.4837C17.0582 11.3624 17.5239 11.8281 17.5239 12.4026V13.4428H14.4833V12.4026C14.4833 11.8281 14.949 11.3624 15.5235 11.3624Z" fill="#4878A6" stroke="#0E1821" stroke-width="0.480098"/>
<path d="M22.5646 8.96185H24.3249C25.4297 8.96185 26.3253 9.85746 26.3253 10.9623V12.9627H20.5641V10.9623C20.5641 9.85746 21.4598 8.96185 22.5646 8.96185Z" fill="#2A5275" stroke="#0E1821" stroke-width="0.480098"/>
<path d="M2.24051 26.3767V18.518C2.24051 14.3733 5.43985 10.2047 9.44197 11.2823C10.3588 11.5291 11.2433 12.073 11.8859 12.5427C12.5551 13.0319 13.3459 13.3627 14.1748 13.3627H17.8318C18.6607 13.3627 19.4515 13.0319 20.1207 12.5427C20.7633 12.073 21.6479 11.5291 22.5646 11.2823C26.5668 10.2047 29.7661 14.3733 29.7661 18.518V26.3767C29.7661 28.5137 28.0337 30.2461 25.8967 30.2461C24.0947 30.2461 22.442 29.2443 21.6085 27.6467L19.7641 24.1116C19.3706 23.3575 18.5906 22.8846 17.7401 22.8846H14.2665C13.416 22.8846 12.636 23.3575 12.2425 24.1116L10.3981 27.6467C9.56456 29.2443 7.91195 30.2461 6.10992 30.2461C3.9729 30.2461 2.24051 28.5137 2.24051 26.3767Z" fill="white" stroke="#0E1821" stroke-width="0.480098" stroke-linecap="round" stroke-linejoin="round"/>
<path d="M12.803 17.5237C12.803 19.9101 10.8685 21.8446 8.48216 21.8446C6.09581 21.8446 4.16129 19.9101 4.16129 17.5237C4.16129 15.1373 6.09581 13.2028 8.48216 13.2028C10.8685 13.2028 12.803 15.1373 12.803 17.5237ZM6.29285 17.5237C6.29285 18.7328 7.27304 19.713 8.48216 19.713C9.69129 19.713 10.6715 18.7328 10.6715 17.5237C10.6715 16.3146 9.69129 15.3344 8.48216 15.3344C7.27304 15.3344 6.29285 16.3146 6.29285 17.5237Z" fill="#2A5275"/>
<circle cx="8.48194" cy="17.5237" r="2.16044" stroke="#0E1821" stroke-width="0.480098"/>
<circle cx="8.48207" cy="17.5236" r="4.40089" stroke="#0E1821" stroke-width="0.480098"/>
<circle cx="20.3245" cy="17.5234" r="1.36028" fill="#F15152" stroke="#0E1821" stroke-width="0.480098"/>
<circle cx="23.445" cy="20.6441" r="1.36028" transform="rotate(-90 23.445 20.6441)" fill="#F15152" stroke="#0E1821" stroke-width="0.480098"/>
<circle cx="26.5654" cy="17.5234" r="1.36028" fill="#F15152" stroke="#0E1821" stroke-width="0.480098"/>
<circle cx="23.445" cy="14.4029" r="1.36028" transform="rotate(-90 23.445 14.4029)" fill="#F15152" stroke="#0E1821" stroke-width="0.480098"/>
<path d="M16.0034 11.3624V9.52201C16.0034 8.63818 16.7199 7.92169 17.6037 7.92169H20.6044C21.4661 7.92169 22.1647 7.22311 22.1647 6.36137V6.36137C22.1647 5.49963 21.4661 4.80105 20.6044 4.80105H17.6037C16.7199 4.80105 16.0034 4.08456 16.0034 3.20073V1.76044" stroke="#0E1821" stroke-width="0.480098" stroke-linecap="round" stroke-linejoin="round"/>
<line x1="14.9633" y1="16.0832" x2="17.0437" y2="16.0832" stroke="#0E1821" stroke-width="0.480098" stroke-linecap="round"/>
<line x1="14.0031" y1="20.8843" x2="15.1233" y2="20.8843" stroke="#0E1821" stroke-width="0.480098" stroke-linecap="round"/>
<line x1="16.8838" y1="20.8843" x2="18.0041" y2="20.8843" stroke="#0E1821" stroke-width="0.480098" stroke-linecap="round"/>
</svg>
