<svg width="32" height="32" viewBox="0 0 32 32" fill="none" xmlns="http://www.w3.org/2000/svg">
<rect x="0.560247" y="9.20196" width="4.80098" height="13.6028" rx="2.40049" fill="#0E1821" stroke="#0E1821" stroke-width="0.480098"/>
<mask id="path-2-inside-1_12_1497" fill="white">
<path fill-rule="evenodd" clip-rule="evenodd" d="M5.60135 16.6434H3.84105C2.95722 16.6434 2.24073 15.927 2.24073 15.0431V9.0613C2.46964 8.99656 2.71118 8.96192 2.96081 8.96192C4.41914 8.96192 5.60135 10.1441 5.60135 11.6025V16.6434Z"/>
</mask>
<path fill-rule="evenodd" clip-rule="evenodd" d="M5.60135 16.6434H3.84105C2.95722 16.6434 2.24073 15.927 2.24073 15.0431V9.0613C2.46964 8.99656 2.71118 8.96192 2.96081 8.96192C4.41914 8.96192 5.60135 10.1441 5.60135 11.6025V16.6434Z" fill="white"/>
<path d="M5.6013 16.6434V17.1235H6.0814V16.6434H5.6013ZM2.24068 9.06129L2.11003 8.59931L1.76058 8.69814V9.06129H2.24068ZM5.6013 16.1633H3.84101V17.1235H5.6013V16.1633ZM3.84101 16.1633C3.22232 16.1633 2.72078 15.6618 2.72078 15.0431H1.76058C1.76058 16.1921 2.69202 17.1235 3.84101 17.1235V16.1633ZM2.72078 15.0431V9.06129H1.76058V15.0431H2.72078ZM2.37133 9.52327C2.55815 9.47044 2.75574 9.44201 2.96077 9.44201V8.48182C2.66652 8.48182 2.38103 8.52267 2.11003 8.59931L2.37133 9.52327ZM2.96077 9.44201C4.15394 9.44201 5.1212 10.4093 5.1212 11.6025H6.0814C6.0814 9.87897 4.68424 8.48182 2.96077 8.48182V9.44201ZM5.1212 11.6025V16.6434H6.0814V11.6025H5.1212Z" fill="#0E1821" mask="url(#path-2-inside-1_12_1497)"/>
<rect x="26.4854" y="9.20196" width="4.80098" height="13.6028" rx="2.40049" fill="#0E1821" stroke="#0E1821" stroke-width="0.480098"/>
<path d="M5.36112 13.6827H15.0431C15.5292 13.6827 15.9233 14.0768 15.9233 14.5629V17.2835C15.9233 18.1231 15.2426 18.8038 14.403 18.8038H5.36112V13.6827Z" fill="#4878A6" stroke="#0E1821" stroke-width="0.480098"/>
<mask id="path-6-inside-2_12_1497" fill="white">
<path fill-rule="evenodd" clip-rule="evenodd" d="M26.2453 16.6432H28.0055C28.8894 16.6432 29.6059 15.9267 29.6059 15.0429V9.06099C29.377 8.99626 29.1354 8.96162 28.8858 8.96162C27.4275 8.96162 26.2453 10.1438 26.2453 11.6022V16.6432Z"/>
</mask>
<path fill-rule="evenodd" clip-rule="evenodd" d="M26.2453 16.6432H28.0055C28.8894 16.6432 29.6059 15.9267 29.6059 15.0429V9.06099C29.377 8.99626 29.1354 8.96162 28.8858 8.96162C27.4275 8.96162 26.2453 10.1438 26.2453 11.6022V16.6432Z" fill="white"/>
<path d="M26.2453 16.6433V17.1234H25.7652V16.6433H26.2453ZM29.6059 9.06104L29.7365 8.59906L30.086 8.69788V9.06104H29.6059ZM26.2453 16.1632H28.0056V17.1234H26.2453V16.1632ZM28.0056 16.1632C28.6242 16.1632 29.1258 15.6616 29.1258 15.0429H30.086C30.086 16.1919 29.1545 17.1234 28.0056 17.1234V16.1632ZM29.1258 15.0429V9.06104H30.086V15.0429H29.1258ZM29.4752 9.52302C29.2884 9.47019 29.0908 9.44177 28.8858 9.44177V8.48157C29.1801 8.48157 29.4655 8.52243 29.7365 8.59906L29.4752 9.52302ZM28.8858 9.44177C27.6926 9.44177 26.7254 10.409 26.7254 11.6022H25.7652C25.7652 9.87873 27.1623 8.48157 28.8858 8.48157V9.44177ZM26.7254 11.6022V16.6433H25.7652V11.6022H26.7254Z" fill="#0E1821" mask="url(#path-6-inside-2_12_1497)"/>
<path d="M26.4854 13.6827H16.8034C16.3173 13.6827 15.9233 14.0768 15.9233 14.5629V17.2835C15.9233 18.1231 16.6039 18.8038 17.4436 18.8038H26.4854V13.6827Z" fill="#4878A6" stroke="#0E1821" stroke-width="0.480098"/>
<line x1="5.60081" y1="16.4034" x2="26.245" y2="16.4034" stroke="#0E1821" stroke-width="0.480098"/>
<rect x="12.3225" y="17.1234" width="0.960195" height="3.52072" rx="0.480098" transform="rotate(90 12.3225 17.1234)" fill="white"/>
<rect x="23.0444" y="17.1234" width="0.960195" height="3.52072" rx="0.480098" transform="rotate(90 23.0444 17.1234)" fill="white"/>
<line x1="6.96141" y1="14.9631" x2="14.1629" y2="14.9631" stroke="#0E1821" stroke-width="0.480098" stroke-linecap="round"/>
<line x1="17.6837" y1="14.9631" x2="24.8851" y2="14.9631" stroke="#0E1821" stroke-width="0.480098" stroke-linecap="round"/>
</svg>
