<svg width="32" height="32" viewBox="0 0 32 32" fill="none" xmlns="http://www.w3.org/2000/svg">
<path d="M3.60077 20.0041H5.04106V22.0845H4.64098C4.06648 22.0845 3.60077 21.6188 3.60077 21.0443V20.0041ZM5.04106 19.524H3.60077V15.2031C3.60077 8.35339 9.15356 2.8006 16.0033 2.8006C22.853 2.8006 28.4058 8.35339 28.4058 15.2031V19.604H26.9655V16.0486C26.9655 9.55167 22.5225 4.24089 16.0033 4.24089C9.48406 4.24089 5.04106 9.55167 5.04106 16.0486V19.524ZM26.9655 20.0841H28.4058V21.0443C28.4058 21.6188 27.9401 22.0845 27.3656 22.0845H26.9655V20.0841Z" fill="#4878A6" stroke="#0E1821" stroke-width="0.480098"/>
<path d="M6.48045 17.6803H8.08008V25.8403H6.48045C5.59661 25.8403 4.88012 25.1238 4.88012 24.24V19.2806C4.88012 18.3968 5.59661 17.6803 6.48045 17.6803Z" fill="#4878A6" stroke="#0E1821" stroke-width="0.480098"/>
<path d="M25.52 17.6803H23.9204V25.8403H25.52C26.4038 25.8403 27.1203 25.1238 27.1203 24.24V19.2806C27.1203 18.3968 26.4038 17.6803 25.52 17.6803Z" fill="#4878A6" stroke="#0E1821" stroke-width="0.480098"/>
<rect x="7.12018" y="16.0803" width="4.31997" height="11.3601" rx="2.15998" fill="#2A5275" stroke="#0E1821" stroke-width="0.480098"/>
<rect x="-0.240049" y="0.240049" width="4.31997" height="11.3601" rx="2.15998" transform="matrix(-1 0 0 1 24.6403 15.8403)" fill="#2A5275" stroke="#0E1821" stroke-width="0.480098"/>
</svg>
