<svg width="48" height="48" viewBox="0 0 48 48" fill="none" xmlns="http://www.w3.org/2000/svg">
<path d="M30.5808 16H18.4192C17.0462 16 16 17.0462 16 18.4192V30.5808C16 31.9538 17.0462 33 18.4192 33H30.5808C31.9538 33 33 31.9538 33 30.5808V18.4192C33 17.0462 31.9538 16 30.5808 16ZM24.5 29.6C27.3115 29.6 29.6 27.3769 29.6 24.6962C29.6 24.2385 29.5346 23.7154 29.4038 23.3231H30.8423V30.2538C30.8423 30.5808 30.5808 30.9077 30.1885 30.9077H18.8115C18.4846 30.9077 18.1577 30.6462 18.1577 30.2538V23.2577H19.6615C19.5308 23.7154 19.4654 24.1731 19.4654 24.6308C19.4 27.3769 21.6885 29.6 24.5 29.6ZM24.5 27.6385C22.6692 27.6385 21.2308 26.2 21.2308 24.4346C21.2308 22.6692 22.6692 21.2308 24.5 21.2308C26.3308 21.2308 27.7692 22.6692 27.7692 24.4346C27.7692 26.2654 26.3308 27.6385 24.5 27.6385ZM30.7769 20.6423C30.7769 21.0346 30.45 21.3615 30.0577 21.3615H28.2269C27.8346 21.3615 27.5077 21.0346 27.5077 20.6423V18.8769C27.5077 18.4846 27.8346 18.1577 28.2269 18.1577H30.0577C30.45 18.1577 30.7769 18.4846 30.7769 18.8769V20.6423Z" fill="#4878A6"/>
</svg>
