<svg width="48" height="48" viewBox="0 0 48 48" fill="none" xmlns="http://www.w3.org/2000/svg">
<path d="M32.16 17C31.1 15.9373 29.6948 15.2886 28.1984 15.1712C26.7019 15.0538 25.2128 15.4755 24 16.36C22.7277 15.4137 21.144 14.9846 19.568 15.1591C17.9919 15.3336 16.5405 16.0988 15.506 17.3006C14.4715 18.5024 13.9309 20.0516 13.9928 21.6361C14.0548 23.2206 14.7148 24.7227 15.84 25.84L22.05 32.06C22.57 32.5718 23.2704 32.8587 24 32.8587C24.7296 32.8587 25.43 32.5718 25.95 32.06L32.16 25.84C33.3276 24.6653 33.983 23.0763 33.983 21.42C33.983 19.7638 33.3276 18.1748 32.16 17ZM30.75 24.46L24.54 30.67C24.4694 30.7414 24.3853 30.798 24.2926 30.8367C24.1999 30.8753 24.1005 30.8953 24 30.8953C23.8996 30.8953 23.8002 30.8753 23.7075 30.8367C23.6148 30.798 23.5307 30.7414 23.46 30.67L17.25 24.43C16.4658 23.6284 16.0266 22.5515 16.0266 21.43C16.0266 20.3086 16.4658 19.2317 17.25 18.43C18.0492 17.641 19.127 17.1986 20.25 17.1986C21.3731 17.1986 22.4509 17.641 23.25 18.43C23.343 18.5238 23.4536 18.5982 23.5755 18.6489C23.6973 18.6997 23.828 18.7258 23.96 18.7258C24.092 18.7258 24.2227 18.6997 24.3446 18.6489C24.4665 18.5982 24.5771 18.5238 24.67 18.43C25.4692 17.641 26.547 17.1986 27.67 17.1986C28.7931 17.1986 29.8709 17.641 30.67 18.43C31.4651 19.2212 31.9186 20.2922 31.9336 21.4137C31.9485 22.5352 31.5237 23.618 30.75 24.43V24.46Z" fill="#838688"/>
</svg>
