<svg width="32" height="32" viewBox="0 0 32 32" fill="none" xmlns="http://www.w3.org/2000/svg">
<path d="M0.959941 18.4037H8.80153H10.0018V23.4447H9.20162C8.05263 23.4447 7.12119 22.5133 7.12119 21.3643C7.12119 20.7898 6.65547 20.3241 6.08098 20.3241H1.7601C1.05304 20.3241 0.479843 19.7509 0.479843 19.0438V18.8838C0.479843 18.6186 0.69479 18.4037 0.959941 18.4037Z" fill="#2A5275" stroke="#0E1821" stroke-width="0.480098" stroke-linecap="round" stroke-linejoin="round"/>
<path d="M31.0463 18.4037H23.2048H22.0045V23.4447H22.8047C23.9537 23.4447 24.8851 22.5133 24.8851 21.3643C24.8851 20.7898 25.3508 20.3241 25.9253 20.3241H30.2462C30.9533 20.3241 31.5264 19.7509 31.5264 19.0438V18.8838C31.5264 18.6186 31.3115 18.4037 31.0463 18.4037Z" fill="#2A5275" stroke="#0E1821" stroke-width="0.480098" stroke-linecap="round" stroke-linejoin="round"/>
<rect x="13.6031" y="16.7233" width="4.80098" height="13.6028" rx="2.40049" fill="#0E1821" stroke="#0E1821" stroke-width="0.480098"/>
<path d="M10.9624 25.6052C9.7352 23.0583 8.72198 19.2833 8.72198 15.509C8.72198 7.65064 11.982 1.28021 16.0035 1.28021C20.0249 1.28021 23.2849 7.65064 23.2849 15.509C23.2849 19.3749 22.325 23.0407 21.0445 25.6052" stroke="#0E1821" stroke-width="0.480098"/>
<path d="M8.64193 15.5231C8.64193 10.7236 9.91934 6.50949 11.8426 3.9891V25.125C11.8426 25.4344 11.5918 25.6851 11.2825 25.6851C11.0752 25.6851 10.8891 25.5753 10.7972 25.4003C9.46861 22.8702 8.64193 19.3832 8.64193 15.5231Z" fill="#4878A6" stroke="#0E1821" stroke-width="0.480098"/>
<path d="M20.1645 25.125V3.9891C22.0877 6.50949 23.3651 10.7236 23.3651 15.5231C23.3651 19.3832 22.5385 22.8702 21.2098 25.4003C21.118 25.5753 20.9318 25.6851 20.7246 25.6851C20.4152 25.6851 20.1645 25.4344 20.1645 25.125Z" fill="#4878A6" stroke="#0E1821" stroke-width="0.480098"/>
<path d="M14.8134 6.26442C14.829 6.21154 14.8614 6.16511 14.9057 6.1321C14.95 6.09909 15.0039 6.08127 15.0592 6.0813H17.1075C17.1481 6.08133 17.188 6.09095 17.2241 6.10938C17.2602 6.1278 17.2914 6.15449 17.3151 6.18727C17.3388 6.22004 17.3543 6.25795 17.3604 6.29788C17.3665 6.3378 17.3631 6.37861 17.3502 6.41693L16.4388 9.14174H18.3877C18.4356 9.14171 18.4826 9.15508 18.5233 9.18035C18.564 9.20562 18.5968 9.24176 18.6178 9.28465C18.6389 9.32755 18.6475 9.37548 18.6426 9.42299C18.6376 9.4705 18.6194 9.51567 18.59 9.55337L15.0055 14.144C14.9687 14.1913 14.9165 14.2242 14.8579 14.237C14.7993 14.2498 14.7381 14.2418 14.6849 14.2142C14.6316 14.1866 14.5898 14.1413 14.5667 14.0862C14.5436 14.031 14.5407 13.9695 14.5584 13.9125L15.4807 10.927H13.7791C13.7393 10.927 13.7 10.9178 13.6644 10.9001C13.6288 10.8823 13.5978 10.8566 13.574 10.8248C13.5501 10.7931 13.534 10.7562 13.5269 10.7172C13.5199 10.6782 13.522 10.6381 13.5333 10.6L14.8134 6.26442ZM15.2508 6.59137L14.1211 10.4169H15.8273C15.8674 10.4169 15.9069 10.4263 15.9427 10.4442C15.9785 10.4622 16.0095 10.4883 16.0333 10.5204C16.0571 10.5525 16.073 10.5897 16.0798 10.6291C16.0865 10.6684 16.0839 10.7088 16.0721 10.7469L15.4587 12.7327L17.8644 9.65181H16.0834C16.0428 9.65178 16.0029 9.64216 15.9668 9.62374C15.9307 9.60531 15.8995 9.57862 15.8758 9.54584C15.8521 9.51307 15.8366 9.47516 15.8305 9.43523C15.8244 9.39531 15.8278 9.3545 15.8407 9.31618L16.7521 6.59137H15.2508Z" fill="#F15152"/>
</svg>
