<svg width="32" height="32" viewBox="0 0 32 32" fill="none" xmlns="http://www.w3.org/2000/svg">
<path d="M24.6896 23.216H16.5287V20.6935H20.6919C21.7525 20.6935 22.6123 19.8338 22.6123 18.7732V9.11993H24.6896V23.216Z" fill="#4878A6" stroke="#0E1821" stroke-width="0.480098" stroke-linecap="round" stroke-linejoin="round"/>
<path d="M30.8407 20.6792C30.1957 16.9073 26.5364 15.8942 24.6895 15.8711V21.3611H30.236C30.6067 21.3611 30.9032 21.0447 30.8407 20.6792Z" fill="#4878A6" stroke="#0E1821" stroke-width="0.480098" stroke-linecap="round" stroke-linejoin="round"/>
<path d="M12.9675 23.8838C12.9675 26.0964 11.1738 27.8901 8.96124 27.8901C6.74865 27.8901 4.95499 26.0964 4.95499 23.8838C4.95499 21.6712 6.74865 19.8776 8.96124 19.8776C11.1738 19.8776 12.9675 21.6712 12.9675 23.8838ZM6.88805 23.8838C6.88805 25.0288 7.81625 25.957 8.96124 25.957C10.1062 25.957 11.0344 25.0288 11.0344 23.8838C11.0344 22.7388 10.1062 21.8106 8.96124 21.8106C7.81625 21.8106 6.88805 22.7388 6.88805 23.8838Z" fill="#0E1821"/>
<circle cx="8.96105" cy="23.8837" r="1.98565" fill="white" stroke="#0E1821" stroke-width="0.480098"/>
<circle cx="8.96124" cy="23.8838" r="3.7662" stroke="#0E1821" stroke-width="0.480098"/>
<path d="M30.7734 23.8838C30.7734 26.0964 28.9798 27.8901 26.7672 27.8901C24.5546 27.8901 22.7609 26.0964 22.7609 23.8838C22.7609 21.6712 24.5546 19.8776 26.7672 19.8776C28.9798 19.8776 30.7734 21.6712 30.7734 23.8838ZM24.694 23.8838C24.694 25.0288 25.6222 25.957 26.7672 25.957C27.9122 25.957 28.8404 25.0288 28.8404 23.8838C28.8404 22.7388 27.9122 21.8106 26.7672 21.8106C25.6222 21.8106 24.694 22.7388 24.694 23.8838Z" fill="#0E1821"/>
<circle cx="26.7666" cy="23.8837" r="1.98565" fill="white" stroke="#0E1821" stroke-width="0.480098"/>
<circle cx="26.7672" cy="23.8838" r="3.7662" stroke="#0E1821" stroke-width="0.480098"/>
<line x1="1.04028" y1="27.6498" x2="31.1264" y2="27.6498" stroke="#0E1821" stroke-width="0.480098" stroke-linecap="round"/>
<circle cx="2.28403" cy="16.9099" r="1.24375" fill="#FBB13C" stroke="#0E1821" stroke-width="0.480098"/>
<path d="M7.34855 13.7373H16.5854V23.1986H2.78762C2.47828 23.1986 2.22751 22.9479 2.22751 22.6385V18.8583C2.22751 16.0301 4.52027 13.7373 7.34855 13.7373Z" fill="#2A5275" stroke="#0E1821" stroke-width="0.480098"/>
<path d="M6.51187 18.0402H13.2962C14.0474 18.0402 14.6564 18.6492 14.6564 19.4005V23.1985H3.7113V20.8408C3.7113 19.2941 4.96516 18.0402 6.51187 18.0402Z" fill="#4878A6" stroke="#0E1821" stroke-width="0.480098"/>
<path d="M12.2433 11.5116H16.232C16.837 11.5116 17.3274 12.002 17.3274 12.607C17.3274 13.2119 16.837 13.7023 16.232 13.7023H12.2433V11.5116ZM11.7632 11.5116V13.7023H4.51004C3.90508 13.7023 3.41467 13.2119 3.41467 12.607C3.41467 12.002 3.90508 11.5116 4.51004 11.5116H11.7632Z" fill="#F15152" stroke="#0E1821" stroke-width="0.480098"/>
<path d="M22.6123 4.24078H26.2286C26.8031 4.24078 27.2688 4.7065 27.2688 5.28099V8.06214C27.2688 8.63663 26.8031 9.10235 26.2286 9.10235H22.6123C21.2698 9.10235 20.1815 8.01405 20.1815 6.67157C20.1815 5.32908 21.2698 4.24078 22.6123 4.24078Z" fill="#4878A6" stroke="#0E1821" stroke-width="0.480098"/>
<rect x="17.3621" y="6.02154" width="6.49375" height="1.7456" rx="0.872799" fill="#2A5275" stroke="#0E1821" stroke-width="0.480098"/>
<path d="M28.8833 4.98257L27.2871 5.54796L27.2812 7.87756L28.8919 8.14151L28.8833 4.98257Z" fill="#4878A6" stroke="#0E1821" stroke-width="0.480098" stroke-linecap="round" stroke-linejoin="round"/>
<circle cx="29.0589" cy="6.6653" r="0.964468" transform="rotate(9.30666 29.0589 6.6653)" fill="#FBB13C" stroke="#0E1821" stroke-width="0.480098"/>
</svg>
