<svg width="32" height="32" viewBox="0 0 32 32" fill="none" xmlns="http://www.w3.org/2000/svg">
<path d="M8.80211 25.6051C8.80211 27.9915 6.86759 29.926 4.48123 29.926C2.09488 29.926 0.160355 27.9915 0.160355 25.6051C0.160355 23.2188 2.09488 21.2842 4.48123 21.2842C6.86759 21.2842 8.80211 23.2188 8.80211 25.6051ZM2.24523 25.6051C2.24523 26.84 3.24632 27.8411 4.48123 27.8411C5.71614 27.8411 6.71723 26.84 6.71723 25.6051C6.71723 24.3702 5.71614 23.3691 4.48123 23.3691C3.24632 23.3691 2.24523 24.3702 2.24523 25.6051Z" fill="#0E1821"/>
<circle cx="4.48119" cy="25.6053" r="2.16044" stroke="#0E1821" stroke-width="0.480098"/>
<circle cx="4.48123" cy="25.6051" r="4.08083" stroke="#0E1821" stroke-width="0.480098"/>
<path d="M31.8465 25.6051C31.8465 27.9915 29.912 29.926 27.5257 29.926C25.1393 29.926 23.2048 27.9915 23.2048 25.6051C23.2048 23.2188 25.1393 21.2842 27.5257 21.2842C29.912 21.2842 31.8465 23.2188 31.8465 25.6051ZM25.2897 25.6051C25.2897 26.84 26.2907 27.8411 27.5257 27.8411C28.7606 27.8411 29.7617 26.84 29.7617 25.6051C29.7617 24.3702 28.7606 23.3691 27.5257 23.3691C26.2907 23.3691 25.2897 24.3702 25.2897 25.6051Z" fill="#0E1821"/>
<circle cx="27.5258" cy="25.6053" r="2.16044" stroke="#0E1821" stroke-width="0.480098"/>
<circle cx="27.5257" cy="25.6051" r="4.08083" stroke="#0E1821" stroke-width="0.480098"/>
<path d="M22.2449 22.5646H10.4025L10.6425 25.6853H19.6844L22.2449 22.5646Z" fill="#F15152" stroke="#0E1821" stroke-width="0.480098" stroke-linecap="round" stroke-linejoin="round"/>
<path d="M4.83397 18.6516L4.84429 18.653L4.85471 18.6536C8.18295 18.8294 10.8919 21.3436 11.3683 24.5834C11.4286 24.9939 11.0868 25.3651 10.6226 25.3651C10.1791 25.3651 9.79193 24.9952 9.68822 24.5029C9.18062 22.0935 7.04339 20.2846 4.48298 20.2838L1.6841 20.2441L1.6841 20.2441H1.68069C1.23877 20.2441 0.880529 19.8858 0.880529 19.4439C0.880529 19.002 1.23877 18.6437 1.68069 18.6437H4.72131C4.75967 18.6437 4.79728 18.6464 4.83397 18.6516Z" fill="#2A5275" stroke="#0E1821" stroke-width="0.480098"/>
<path d="M23.2929 3.96067L23.259 3.76073H23.0562L21.3648 3.76073V2.6405H24.0053C24.1045 2.6405 24.1901 2.70076 24.2266 2.78727L25.4709 10.0073L24.3498 10.1973L23.2929 3.96067Z" fill="#4878A6" stroke="#0E1821" stroke-width="0.480098"/>
<mask id="path-10-inside-1_12_1499" fill="white">
<path fill-rule="evenodd" clip-rule="evenodd" d="M26.5003 16.3565C26.001 15.9985 25.306 16.1131 24.948 16.6124L19.3034 24.485L4.64107 24.485C4.02239 24.485 3.52084 24.9865 3.52084 25.6052C3.52084 26.2239 4.02239 26.7254 4.64107 26.7254H19.8442C20.175 26.7254 20.4723 26.582 20.6774 26.354C20.7266 26.3069 20.7723 26.2545 20.8134 26.1971L26.7562 17.9088C27.1142 17.4095 26.9996 16.7145 26.5003 16.3565Z"/>
</mask>
<path fill-rule="evenodd" clip-rule="evenodd" d="M26.5003 16.3565C26.001 15.9985 25.306 16.1131 24.948 16.6124L19.3034 24.485L4.64107 24.485C4.02239 24.485 3.52084 24.9865 3.52084 25.6052C3.52084 26.2239 4.02239 26.7254 4.64107 26.7254H19.8442C20.175 26.7254 20.4723 26.582 20.6774 26.354C20.7266 26.3069 20.7723 26.2545 20.8134 26.1971L26.7562 17.9088C27.1142 17.4095 26.9996 16.7145 26.5003 16.3565Z" fill="#4878A6"/>
<path d="M24.948 16.6123L24.5579 16.3326V16.3326L24.948 16.6123ZM26.5003 16.3565L26.7801 15.9663L26.5003 16.3565ZM19.3034 24.4849V24.965H19.5499L19.6936 24.7646L19.3034 24.4849ZM4.64107 24.4849V24.0048V24.4849ZM20.6774 26.3539L20.3456 26.0069L20.3325 26.0194L20.3204 26.0329L20.6774 26.3539ZM20.8134 26.1971L20.4232 25.9173L20.4232 25.9173L20.8134 26.1971ZM26.7562 17.9087L27.1463 18.1885L27.1463 18.1885L26.7562 17.9087ZM25.3382 16.8921C25.5417 16.6083 25.9368 16.5431 26.2206 16.7466L26.7801 15.9663C26.0653 15.4538 25.0704 15.6178 24.5579 16.3326L25.3382 16.8921ZM19.6936 24.7646L25.3382 16.8921L24.5579 16.3326L18.9132 24.2051L19.6936 24.7646ZM4.64107 24.965L19.3034 24.965V24.0048L4.64107 24.0048V24.965ZM4.00094 25.6051C4.00094 25.2516 4.28754 24.965 4.64107 24.965V24.0048C3.75723 24.0048 3.04075 24.7213 3.04075 25.6051H4.00094ZM4.64107 26.2452C4.28754 26.2452 4.00094 25.9587 4.00094 25.6051H3.04075C3.04075 26.489 3.75723 27.2054 4.64107 27.2054V26.2452ZM19.8442 26.2452H4.64107V27.2054H19.8442V26.2452ZM20.3204 26.0329C20.2025 26.1639 20.0332 26.2452 19.8442 26.2452V27.2054C20.3168 27.2054 20.7421 26.9999 21.0344 26.6749L20.3204 26.0329ZM20.4232 25.9173C20.3995 25.9504 20.3735 25.9803 20.3456 26.0069L21.0092 26.7009C21.0798 26.6333 21.145 26.5585 21.2036 26.4768L20.4232 25.9173ZM26.366 17.629L20.4232 25.9173L21.2036 26.4768L27.1463 18.1885L26.366 17.629ZM26.2206 16.7466C26.5044 16.9501 26.5695 17.3452 26.366 17.629L27.1463 18.1885C27.6588 17.4737 27.4949 16.4788 26.7801 15.9663L26.2206 16.7466Z" fill="#0E1821" mask="url(#path-10-inside-1_12_1499)"/>
<rect x="24.026" y="10.0919" width="1.74476" height="16.4546" rx="0.872381" transform="rotate(-9.61845 24.026 10.0919)" fill="#4878A6" stroke="#0E1821" stroke-width="0.480098"/>
<rect x="21.3644" y="2.32043" width="1.76036" height="4.64094" rx="0.880179" transform="rotate(90 21.3644 2.32043)" fill="#2A5275" stroke="#0E1821" stroke-width="0.480098"/>
<path d="M26.0058 2.80042L24.4054 3.68059L24.8055 6.1611H26.5659L26.0058 2.80042Z" fill="#4878A6" stroke="#0E1821" stroke-width="0.480098" stroke-linecap="round" stroke-linejoin="round"/>
<path fill-rule="evenodd" clip-rule="evenodd" d="M26.4729 5.60087L26.1362 3.58082C26.2456 3.54178 26.3633 3.52053 26.4861 3.52053C27.0606 3.52053 27.5263 3.98624 27.5263 4.56074C27.5263 5.13523 27.0606 5.60095 26.4861 5.60095C26.4817 5.60095 26.4773 5.60092 26.4729 5.60087Z" fill="#FBB13C"/>
<path d="M26.4729 5.60085L26.2361 5.64031L26.2691 5.83839L26.4699 5.84088L26.4729 5.60085ZM26.1362 3.5808L26.0555 3.35473L25.8664 3.42223L25.8994 3.62026L26.1362 3.5808ZM26.7096 5.56139L26.373 3.54133L25.8994 3.62026L26.2361 5.64031L26.7096 5.56139ZM26.2169 3.80687C26.3007 3.77695 26.3912 3.76056 26.486 3.76056V3.28046C26.3354 3.28046 26.1903 3.30657 26.0555 3.35473L26.2169 3.80687ZM26.486 3.76056C26.9279 3.76056 27.2862 4.1188 27.2862 4.56072H27.7663C27.7663 3.85365 27.1931 3.28046 26.486 3.28046V3.76056ZM27.2862 4.56072C27.2862 5.00264 26.9279 5.36088 26.486 5.36088V5.84098C27.1931 5.84098 27.7663 5.26779 27.7663 4.56072H27.2862ZM26.486 5.36088C26.4826 5.36088 26.4792 5.36086 26.4758 5.36082L26.4699 5.84088C26.4753 5.84095 26.4806 5.84098 26.486 5.84098V5.36088Z" fill="#0E1821"/>
<circle cx="16.0034" cy="15.2031" r="5.52112" fill="white" stroke="#0E1821" stroke-width="0.480098"/>
<path d="M14.7333 11.3855C14.7489 11.3326 14.7813 11.2862 14.8256 11.2532C14.8699 11.2202 14.9238 11.2024 14.9791 11.2024H17.0274C17.068 11.2024 17.1079 11.212 17.144 11.2305C17.1801 11.2489 17.2113 11.2756 17.235 11.3084C17.2587 11.3411 17.2742 11.379 17.2803 11.419C17.2864 11.4589 17.283 11.4997 17.2701 11.538L16.3587 14.2628H18.3076C18.3555 14.2628 18.4025 14.2762 18.4432 14.3014C18.4839 14.3267 18.5167 14.3629 18.5377 14.4057C18.5588 14.4486 18.5674 14.4966 18.5625 14.5441C18.5575 14.5916 18.5393 14.6368 18.5099 14.6745L14.9254 19.2651C14.8886 19.3124 14.8364 19.3453 14.7778 19.3581C14.7192 19.3709 14.658 19.3629 14.6048 19.3353C14.5515 19.3077 14.5097 19.2624 14.4866 19.2073C14.4635 19.1521 14.4606 19.0906 14.4783 19.0335L15.4006 16.0481H13.699C13.6592 16.0481 13.6199 16.0389 13.5843 16.0212C13.5487 16.0034 13.5177 15.9777 13.4939 15.9459C13.47 15.9142 13.4539 15.8773 13.4468 15.8383C13.4398 15.7993 13.4419 15.7592 13.4532 15.7211L14.7333 11.3855ZM15.1707 11.7125L14.041 15.538H15.7472C15.7873 15.538 15.8268 15.5474 15.8626 15.5653C15.8984 15.5833 15.9294 15.6094 15.9532 15.6415C15.977 15.6736 15.9929 15.7108 15.9997 15.7502C16.0064 15.7895 16.0038 15.8299 15.992 15.868L15.3786 17.8537L17.7843 14.7729H16.0033C15.9627 14.7729 15.9228 14.7633 15.8867 14.7448C15.8506 14.7264 15.8194 14.6997 15.7957 14.6669C15.772 14.6342 15.7565 14.5963 15.7504 14.5563C15.7442 14.5164 15.7477 14.4756 15.7606 14.4373L16.672 11.7125H15.1707Z" fill="#F15152"/>
</svg>
