<svg width="48" height="48" viewBox="0 0 48 48" fill="none" xmlns="http://www.w3.org/2000/svg">
<path d="M33.6 17.9C32.9 18.2 32.1 18.4 31.3 18.5C32.1 18 32.8 17.2 33.1 16.3C32.3 16.8 31.5 17.1 30.5 17.3C29.8 16.5 28.7 16 27.6 16C25.4 16 23.6 17.8 23.6 20C23.6 20.3 23.6 20.6 23.7 20.9C20.4 20.7 17.4 19.1 15.4 16.7C15.1 17.3 14.9 18 14.9 18.7C14.9 20.1 15.6 21.3 16.7 22C16 22 15.4 21.8 14.9 21.5C14.9 23.4 16.3 25.1 18.1 25.4C17.8 25.5 17.4 25.5 17 25.5C16.7 25.5 16.5 25.5 16.2 25.4C16.7 27 18.2 28.2 20 28.2C18.6 29.3 16.9 29.9 15 29.9C14.7 29.9 14.4 29.9 14 29.8C15.8 30.9 17.9 31.6 20.2 31.6C27.6 31.6 31.6 25.5 31.6 20.2V19.7C32.4 19.4 33.1 18.7 33.6 17.9Z" fill="#4878A6"/>
</svg>
