<svg width="48" height="48" viewBox="0 0 48 48" fill="none" xmlns="http://www.w3.org/2000/svg">
<path d="M33.8061 29.1153C33.8061 29.0322 33.7231 29.0322 33.7231 28.9492C33.391 28.285 32.6438 27.4548 31.6475 26.5416C31.1494 26.1264 30.9003 25.7943 30.7343 25.6283C30.4852 25.2962 30.4852 25.0471 30.5683 24.715C30.6513 24.466 30.9833 24.0509 31.5645 23.3036C31.8966 22.8885 32.0626 22.6395 32.3117 22.3904C33.5571 20.7299 34.1382 19.6506 33.9722 19.1525L33.8892 19.0695C33.8061 18.9865 33.7231 18.9034 33.5571 18.9034C33.391 18.8204 33.142 18.8204 32.8929 18.9034H29.738C29.655 18.9034 29.655 18.9034 29.4889 18.9034C29.4059 18.9034 29.3229 18.9034 29.3229 18.9034H29.2399H29.1569L29.0738 18.9865C28.9908 19.0695 28.9908 19.0695 28.9908 19.1525C28.6587 20.0658 28.2436 20.813 27.8285 21.6432C27.5794 22.0583 27.3303 22.4734 27.0813 22.8055C26.8322 23.1376 26.6662 23.3867 26.5001 23.5527C26.3341 23.7188 26.168 23.8018 26.085 23.9678C26.002 24.0509 25.8359 24.1339 25.8359 24.0509C25.7529 24.0509 25.6699 24.0509 25.6699 23.9678C25.5869 23.8848 25.5038 23.8018 25.4208 23.7188C25.3378 23.6357 25.3378 23.4697 25.2548 23.3036C25.2548 23.1376 25.2548 22.9716 25.2548 22.8885C25.2548 22.8055 25.2548 22.5565 25.2548 22.3904C25.2548 22.1413 25.2548 21.9753 25.2548 21.8923C25.2548 21.6432 25.2548 21.3111 25.2548 20.979C25.2548 20.6469 25.2548 20.3978 25.2548 20.2318C25.2548 20.0658 25.2548 19.8167 25.2548 19.6506C25.2548 19.4016 25.2548 19.2355 25.2548 19.1525C25.2548 19.0695 25.1718 18.9034 25.1718 18.8204C25.0887 18.7374 25.0057 18.6544 24.9227 18.5713C24.8397 18.4883 24.6736 18.4883 24.5906 18.4053C24.1755 18.3223 23.6773 18.2393 23.0962 18.2393C21.7678 18.2393 20.8546 18.3223 20.5225 18.4883C20.3564 18.5714 20.1904 18.6544 20.1074 18.8204C19.9413 18.9865 19.9413 19.0695 20.0243 19.0695C20.4394 19.1525 20.7715 19.3185 20.9376 19.5676L21.0206 19.7337C21.1036 19.8167 21.1036 19.9827 21.1866 20.2318C21.2697 20.4809 21.2697 20.7299 21.2697 21.062C21.2697 21.5602 21.2697 22.0583 21.2697 22.3904C21.2697 22.8055 21.1866 23.0546 21.1866 23.3036C21.1866 23.5527 21.1036 23.7188 21.0206 23.8018C20.9376 23.9678 20.9376 24.0509 20.8546 24.0509C20.8546 24.0509 20.8546 24.1339 20.7715 24.1339C20.6885 24.1339 20.6055 24.2169 20.4394 24.2169C20.3564 24.2169 20.1904 24.1339 20.1074 24.0509C19.9413 23.9678 19.7753 23.8018 19.6922 23.6357C19.5262 23.4697 19.3601 23.2206 19.1941 22.8885C19.0281 22.5564 18.779 22.2244 18.6129 21.7262L18.4469 21.3941C18.3639 21.2281 18.1978 20.896 18.0318 20.4809C17.8657 20.0658 17.6997 19.7337 17.5336 19.3186C17.4506 19.1525 17.3676 19.0695 17.2846 18.9865H17.2016C17.2016 18.9865 17.1185 18.9034 17.0355 18.9034C16.9525 18.9034 16.8695 18.8204 16.7864 18.8204H13.7976C13.4655 18.8204 13.2995 18.9034 13.2165 18.9865L13.1334 19.0695C13.1334 19.0695 13.1334 19.1525 13.1334 19.2355C13.1334 19.3186 13.1334 19.4016 13.2165 19.5676C13.6316 20.5639 14.1297 21.5602 14.6278 22.5564C15.126 23.4697 15.6241 24.2999 15.9562 24.8811C16.3713 25.4623 16.7034 26.0434 17.1185 26.5416C17.5336 27.0397 17.7827 27.3718 17.8657 27.5378C18.0318 27.7039 18.1148 27.7869 18.1978 27.8699L18.4469 28.119C18.6129 28.285 18.862 28.5341 19.1941 28.7832C19.5262 29.0322 19.9413 29.2813 20.3564 29.5304C20.7715 29.7794 21.2697 29.9455 21.7678 30.1115C22.349 30.2776 22.8471 30.3606 23.3452 30.2776H24.5906C24.8397 30.2776 25.0057 30.1946 25.1718 30.0285L25.2548 29.9455C25.2548 29.8625 25.3378 29.8625 25.3378 29.7794C25.3378 29.6964 25.3378 29.6134 25.3378 29.4474C25.3378 29.1153 25.3378 28.8662 25.4208 28.6171C25.5038 28.3681 25.5039 28.202 25.5869 28.036C25.6699 27.8699 25.7529 27.7869 25.8359 27.7039C25.919 27.6208 26.002 27.5378 26.002 27.5378H26.085C26.251 27.4548 26.5001 27.5378 26.6662 27.7039C26.9152 27.8699 27.1643 28.119 27.3303 28.3681C27.4964 28.6171 27.7455 28.8662 28.0776 29.1983C28.4097 29.5304 28.6587 29.7794 28.8248 29.8625L29.0738 30.0285C29.2399 30.1115 29.4059 30.1946 29.655 30.2776C29.9041 30.3606 30.0701 30.3606 30.2361 30.3606L33.0589 30.2776C33.308 30.2776 33.5571 30.1946 33.7231 30.1115C33.8892 30.0285 33.9722 29.9455 33.9722 29.7794C33.9722 29.6964 33.9722 29.5304 33.9722 29.4474C33.8061 29.2813 33.8061 29.1983 33.8061 29.1153Z" fill="#4878A6"/>
</svg>
