<svg width="32" height="32" viewBox="0 0 32 32" fill="none" xmlns="http://www.w3.org/2000/svg">
<rect x="5.84079" y="4.40088" width="20.3241" height="23.0447" rx="3.28067" fill="#4878A6" stroke="#0E1821" stroke-width="0.480098"/>
<rect x="7.76156" y="6.00116" width="16.4834" height="19.684" rx="1.68034" fill="white" stroke="#0E1821" stroke-width="0.480098"/>
<path d="M15.1298 8.12732C15.1405 8.09103 15.1628 8.05917 15.1933 8.03651C15.2237 8.01386 15.2608 8.00163 15.2988 8.00165H16.707C16.7349 8.00167 16.7623 8.00827 16.7872 8.02092C16.812 8.03356 16.8334 8.05188 16.8497 8.07437C16.866 8.09686 16.8767 8.12288 16.8809 8.15028C16.8851 8.17768 16.8827 8.20568 16.8739 8.23198L16.2472 10.1019H17.5871C17.6201 10.1019 17.6524 10.1111 17.6804 10.1284C17.7083 10.1458 17.7309 10.1706 17.7453 10.2C17.7598 10.2295 17.7657 10.2624 17.7623 10.295C17.7589 10.3276 17.7464 10.3586 17.7262 10.3844L15.2618 13.5349C15.2366 13.5673 15.2007 13.5899 15.1604 13.5987C15.1201 13.6075 15.078 13.602 15.0414 13.583C15.0048 13.5641 14.9761 13.533 14.9602 13.4952C14.9443 13.4573 14.9423 13.4151 14.9545 13.376L15.5885 11.3271H14.4187C14.3913 11.3271 14.3643 11.3208 14.3398 11.3086C14.3154 11.2965 14.2941 11.2788 14.2777 11.257C14.2613 11.2352 14.2502 11.2099 14.2453 11.1832C14.2405 11.1564 14.242 11.1288 14.2497 11.1027L15.1298 8.12732ZM15.4305 8.3517L14.6539 10.9771H15.8269C15.8544 10.9771 15.8816 10.9835 15.9062 10.9958C15.9308 11.0082 15.9521 11.0261 15.9685 11.0481C15.9849 11.0701 15.9958 11.0957 16.0004 11.1227C16.0051 11.1497 16.0033 11.1774 15.9952 11.2036L15.5734 12.5663L17.2273 10.452H16.0029C15.975 10.452 15.9476 10.4454 15.9227 10.4327C15.8979 10.4201 15.8765 10.4018 15.8602 10.3793C15.8439 10.3568 15.8332 10.3308 15.829 10.3034C15.8248 10.276 15.8272 10.248 15.836 10.2217L16.4627 8.3517H15.4305Z" fill="#F15152"/>
<circle cx="11.8422" cy="17.6036" r="1.20024" fill="#FBB13C" stroke="#0E1821" stroke-width="0.480098"/>
<circle cx="11.8422" cy="21.7645" r="1.20024" fill="#FBB13C" stroke="#0E1821" stroke-width="0.480098"/>
<circle cx="16.003" cy="17.6036" r="1.20024" fill="#FBB13C" stroke="#0E1821" stroke-width="0.480098"/>
<circle cx="16.003" cy="21.7645" r="1.20024" fill="#FBB13C" stroke="#0E1821" stroke-width="0.480098"/>
<circle cx="20.1638" cy="17.6036" r="1.20024" fill="#FBB13C" stroke="#0E1821" stroke-width="0.480098"/>
<circle cx="20.1638" cy="21.7645" r="1.20024" fill="#FBB13C" stroke="#0E1821" stroke-width="0.480098"/>
<path d="M11.7417 0.400144H20.1042C20.7632 0.400144 21.3274 0.872543 21.4433 1.5213L21.9575 4.40096H9.88834L10.4026 1.5213C10.5184 0.872543 11.0826 0.400144 11.7417 0.400144Z" fill="#2A5275" stroke="#0E1821" stroke-width="0.480098"/>
<path d="M11.7417 31.4464H20.1042C20.7632 31.4464 21.3274 30.974 21.4433 30.3252L21.9575 27.4455H9.88834L10.4026 30.3252C10.5184 30.974 11.0826 31.4464 11.7417 31.4464Z" fill="#2A5275" stroke="#0E1821" stroke-width="0.480098"/>
</svg>
